<svg xmlns="http://www.w3.org/2000/svg" xmlns:xlink="http://www.w3.org/1999/xlink" viewBox="0 0 373.69 172.01"><defs><style>.cls-1,.cls-2{stroke-miterlimit:10;}.cls-1{fill:url(#Dégradé_sans_nom_179);stroke:url(#Dégradé_sans_nom_167);}.cls-2{fill:url(#Dégradé_sans_nom_28);stroke:url(#Dégradé_sans_nom_167-2);}</style><linearGradient id="Dégradé_sans_nom_179" x1="7.7" y1="85.37" x2="373.5" y2="85.37" gradientUnits="userSpaceOnUse"><stop offset="0.01" stop-color="#26346d"/><stop offset="0.07" stop-color="#253571"/><stop offset="0.14" stop-color="#22387f"/><stop offset="0.2" stop-color="#1e3c91"/><stop offset="0.24" stop-color="#1f357f"/><stop offset="0.32" stop-color="#212b63"/><stop offset="0.4" stop-color="#222451"/><stop offset="0.45" stop-color="#22224b"/><stop offset="0.49" stop-color="#232d65"/><stop offset="0.53" stop-color="#25367a"/><stop offset="0.57" stop-color="#253c89"/><stop offset="0.63" stop-color="#264091"/><stop offset="0.71" stop-color="#264194"/></linearGradient><linearGradient id="Dégradé_sans_nom_167" x1="7.63" y1="85.38" x2="373.69" y2="85.38" gradientUnits="userSpaceOnUse"><stop offset="0.01" stop-color="#26346d"/><stop offset="0.07" stop-color="#253571"/><stop offset="0.14" stop-color="#22387f"/><stop offset="0.2" stop-color="#1e3c91"/><stop offset="0.29" stop-color="#134184"/><stop offset="0.38" stop-color="#0e447e"/><stop offset="0.45" stop-color="#22224b"/></linearGradient><linearGradient id="Dégradé_sans_nom_28" x1="0.07" y1="86.62" x2="369.52" y2="86.62" gradientUnits="userSpaceOnUse"><stop offset="0.01" stop-color="#009fe3"/><stop offset="0.03" stop-color="#019bdf"/><stop offset="0.06" stop-color="#058dd4"/><stop offset="0.09" stop-color="#0c78c2"/><stop offset="0.12" stop-color="#1559a9"/><stop offset="0.15" stop-color="#1e3c91"/><stop offset="0.27" stop-color="#2b2d87"/><stop offset="0.37" stop-color="#312783"/><stop offset="0.39" stop-color="#2f267a"/><stop offset="0.44" stop-color="#292465"/><stop offset="0.5" stop-color="#252356"/><stop offset="0.56" stop-color="#23224e"/><stop offset="0.67" stop-color="#22224b"/><stop offset="0.8" stop-color="#29235c"/><stop offset="0.9" stop-color="#82368c"/><stop offset="0.97" stop-color="#e6007e"/></linearGradient><linearGradient id="Dégradé_sans_nom_167-2" x1="0" y1="86.63" x2="369.7" y2="86.63" xlink:href="#Dégradé_sans_nom_167"/></defs><title>Fichier 1</title><g id="Calque_2" data-name="Calque 2"><g id="Calque_1-2" data-name="Calque 1"><path class="cls-1" d="M373.5.48C317.82,14.53,265.79,28.57,210.11,42.62c-14.59,3.68-22.38,18.06-16.65,30.76q8.73,19.37,17.47,38.73c6.16,13.66-3.33,29-19.42,31.31L7.7,170.26,214.1,158c13.47-.8,23-12.24,20.2-24.2L220.59,75.53c-1.84-7.79,2.68-15.68,10.78-18.8Z"/><path class="cls-2" d="M369.52,1.73l-167,42.14c-14.59,3.68-22.38,18.06-16.65,30.76Q194.56,94,203.3,113.35c6.16,13.67-3.32,29-19.42,31.32L.07,171.51l206.4-12.31c13.47-.8,23-12.24,20.2-24.2L213,76.78C211.12,69,215.64,61.1,223.74,58Z"/></g></g></svg>